<?xml version="1.0" encoding="UTF-8"?>
<!DOCTYPE svg PUBLIC "-//W3C//DTD SVG 1.1//EN" "http://www.w3.org/Graphics/SVG/1.1/DTD/svg11.dtd">
<svg version="1.1" xmlns="http://www.w3.org/2000/svg" xmlns:xlink="http://www.w3.org/1999/xlink" x="0" y="0" width="383.428" height="723.417" viewBox="0, 0, 383.428, 723.417">
  <defs>
    <linearGradient id="Gradient_1" gradientUnits="userSpaceOnUse" x1="239.927" y1="523.025" x2="375.933" y2="523.025" gradientTransform="matrix(1.3, 0, 0, 1.3, 0, 0)">
      <stop offset="0" stop-color="#BFC0BF"/>
      <stop offset="1" stop-color="#FFFFFE"/>
    </linearGradient>
    <radialGradient id="Gradient_2" gradientUnits="userSpaceOnUse" cx="331.26" cy="507.867" r="14.692" gradientTransform="matrix(1.3, 0, 0, 1.3, 0, 0)">
      <stop offset="0" stop-color="#F2B229"/>
      <stop offset="0.067" stop-color="#F2B229"/>
      <stop offset="1" stop-color="#E9842C"/>
    </radialGradient>
  </defs>
  <g id="Layer_1">
    <path d="M326.994,483.462 C340.755,503.521 370.869,565.399 383.284,605.819 C387.119,618.414 312.852,679.682 307.418,677.117 L290.025,646.572 L334.89,592.819 L298.048,536.631 L326.994,483.462" fill="#F6C49D" id="path72979"/>
    <path d="M262.323,396.729 C243.433,392.742 225.177,384.769 215.352,358.592 C209.664,343.485 212.635,304.23 191.395,308.699 C170.169,304.23 173.126,343.485 167.452,358.592 C157.587,384.769 139.357,392.742 120.454,396.729 C80.997,405.006 91.597,467.366 96.688,505.375 C106.285,577.256 109.866,572.736 105.689,620.14 C104.902,629.179 99.277,643.399 104.801,650.711 C110.932,658.81 127.994,657.211 136.729,657.16 C162.5,656.956 187.993,662.518 213.929,662.467 C233.353,662.416 265.624,677.524 278.32,653.479 C285.15,640.605 274.067,615.913 273.356,601.644 C271.655,569.093 278.295,537.456 282.585,505.337 C287.638,467.327 309.423,406.834 262.323,396.729" fill="#F6C49D" id="path72981"/>
    <path d="M289.415,406.86 C289.415,406.86 344.92,488.236 345.63,497.224 C345.63,497.224 306.352,532.899 295.89,545.315 L243.966,487.729 L289.415,406.86" fill="#90C2DF" id="path72983"/>
    <path d="M102.604,554.557 C100.078,559.965 97.196,565.297 94.149,570.553 C79.752,595.512 65.839,645.785 26.381,622.426 C8.252,611.685 24.502,577.281 30.241,563.849 C40.435,539.982 44.764,515.455 54.21,491.156 C58.247,480.746 57.942,461.399 72.517,462.236 C82.304,462.769 95.139,477.547 100.459,484.86 C117.508,508.117 113.192,531.882 102.604,554.557" fill="#F6C49D" id="path72985"/>
    <path d="M108.342,556.105 C117.026,544.476 119.477,537.164 123.5,529.217 C127.563,521.117 134.672,515.303 136.526,506.289 C139.357,492.628 132.768,475.769 128.071,463.099 C122.777,448.906 114.131,433.241 107.225,420.367 C79.854,369.23 51.454,466.857 46.237,483.792 C43.672,492.248 37.87,503.394 36.056,512.56 C34.455,520.685 104.852,560.803 108.342,556.105" fill="#90C2DF" id="path72987"/>
    <path d="M289.415,406.86 C289.415,406.86 344.92,488.236 345.63,497.224 C345.63,497.224 306.352,532.899 295.89,545.315 L243.966,487.729 L289.415,406.86" fill="#90C2DF" fill-opacity="0.531" id="path72989"/>
    <path d="M108.342,556.105 C117.026,544.476 119.477,537.164 123.5,529.217 C127.563,521.117 134.672,515.303 136.526,506.289 C139.357,492.628 132.768,475.769 128.071,463.099 C122.777,448.906 114.131,433.241 107.225,420.367 C79.854,369.23 51.454,466.857 46.237,483.792 C43.672,492.248 37.87,503.394 36.056,512.56 C34.455,520.685 104.852,560.803 108.342,556.105" fill="#90C2DF" fill-opacity="0.531" id="path72991"/>
    <path d="M238.025,339.752 C282.408,323.831 318.767,287.117 318.767,236.792 C318.767,172.199 261.613,116.161 191.142,116.161 C120.657,116.161 63.527,172.199 63.527,236.792 C63.527,269.369 81.835,299.355 106.642,319.363 C120.479,330.535 136.691,339.015 153.842,343.866 C180.579,351.432 210.831,349.502 238.025,339.752" fill="#F6C49D" id="path72993"/>
    <path d="M179.834,265.039 C178.604,263.607 177.472,262.047 176.081,260.432 C174.693,258.821 173.025,257.169 170.795,255.724 L169.191,258.197 L170.905,260.595 C175.092,257.601 179.146,254.891 184.263,252.925 C185.783,252.342 186.542,250.636 185.957,249.116 C185.374,247.597 183.669,246.839 182.15,247.422 C176.297,249.67 171.744,252.749 167.476,255.798 C166.682,256.365 166.222,257.287 166.244,258.263 C166.266,259.238 166.767,260.138 167.586,260.669 C169.229,261.739 170.437,262.918 171.618,264.285 C172.799,265.646 173.932,267.208 175.356,268.875 C176.415,270.11 178.277,270.254 179.513,269.196 C180.749,268.137 180.892,266.275 179.834,265.039" fill="#1A1919" id="path72995"/>
    <path d="M133.556,281.887 C133.556,296.257 120.619,307.887 104.724,307.887 C88.817,307.887 75.919,296.257 75.919,281.887 C75.919,267.515 88.817,255.887 104.724,255.887 C120.619,255.887 133.556,267.515 133.556,281.887" fill="#EFA68D" id="path72997"/>
    <path d="M226.676,281.887 C226.676,296.257 239.573,307.887 255.468,307.887 C271.388,307.887 284.287,296.257 284.287,281.887 C284.287,267.515 271.388,255.887 255.468,255.887 C239.573,255.887 226.676,267.515 226.676,281.887" fill="#EFA68D" id="path72999"/>
    <path d="M136.221,247.863 C137.072,257.283 132.261,265.434 125.468,266.068 C118.651,266.703 112.431,259.593 111.554,250.173 C110.704,240.753 115.527,232.628 122.333,231.968 C129.137,231.36 135.357,238.443 136.221,247.863" fill="#1A1919" id="path73001"/>
    <path d="M253.564,250.529 C252.421,259.923 245.998,266.855 239.218,266.018 C232.414,265.179 227.817,256.877 228.96,247.507 C230.103,238.113 236.552,231.206 243.331,232.019 C250.111,232.857 254.706,241.134 253.564,250.529" fill="#1A1919" id="path73003"/>
    <path d="M374.956,200.078 C374.956,229.785 365.994,270.003 345.453,292.881 C332.097,307.735 299.09,319.617 281.62,303.646 C284.337,306.11 301.019,275.59 302.186,272.568 C308.255,256.444 308.331,241.643 306.352,224.682 C305.386,216.125 304.066,200.789 296.652,194.72 C272.176,174.712 248.739,135.128 247.013,136.881 C200.079,183.726 119.818,190.531 94.377,195.736 C79.398,198.783 78.585,196.548 75.271,212.723 C73.074,223.411 72.085,235.066 73.226,245.934 C75.791,270.638 82.976,301.387 98.173,321.394 C26.255,317.611 -0,264.748 -0,200.078 C-0,94.503 89.63,-0 191.142,-0 C292.665,-0 374.956,94.503 374.956,200.078" fill="#653E2A" id="path73005"/>
    <path d="M256.491,55.708 C256.491,55.708 256.567,55.787 256.724,55.955 C259.162,58.561 280.346,81.554 300.863,113.738 C311.121,129.828 321.212,148.214 328.717,167.466 C336.227,186.718 341.141,206.826 341.138,226.349 C341.138,237.745 339.47,248.941 335.682,259.701 C331.893,270.461 325.987,280.793 317.446,290.484 C316.542,291.508 316.64,293.071 317.664,293.974 C318.689,294.878 320.252,294.779 321.156,293.754 C330.106,283.605 336.356,272.691 340.348,261.343 C344.343,249.996 346.085,238.226 346.085,226.349 C346.081,205.338 340.653,183.989 332.575,163.771 C320.453,133.445 302.346,105.629 287.268,85.353 C272.189,65.081 260.13,52.356 260.082,52.304 C259.142,51.314 257.577,51.272 256.585,52.212 C255.594,53.15 255.551,54.716 256.491,55.708" fill="#4C2D21" id="path73007"/>
    <path d="M127.253,50.038 C127.162,50.121 105.21,69.355 83.208,100.142 C72.209,115.537 61.195,133.825 52.913,154.081 C44.634,174.335 39.086,196.568 39.084,219.817 C39.074,248.439 47.54,278.582 69.489,308.142 C70.303,309.237 71.852,309.468 72.948,308.654 C74.045,307.84 74.274,306.29 73.46,305.194 C52.124,276.424 44.041,247.469 44.031,219.817 C44.03,197.362 49.397,175.753 57.491,155.952 C69.628,126.253 87.905,100.654 103.146,82.519 C110.767,73.449 117.625,66.244 122.571,61.313 C125.043,58.848 127.037,56.952 128.409,55.676 C129.095,55.038 129.626,54.554 129.982,54.233 C130.16,54.072 130.295,53.951 130.385,53.872 L130.512,53.759 C131.54,52.858 131.643,51.295 130.744,50.268 C129.843,49.241 128.28,49.139 127.253,50.038" fill="#4C2D21" id="path73009"/>
    <path d="M216.837,61.946 C216.837,61.946 216.754,62.029 216.585,62.201 C213.951,64.856 190.944,87.824 159.584,112.536 C143.906,124.891 126.14,137.682 107.816,148.583 C89.492,159.487 70.602,168.492 52.751,173.315 C51.433,173.672 50.653,175.029 51.009,176.349 C51.366,177.667 52.724,178.447 54.042,178.091 C73.13,172.925 93.005,163.286 112.139,151.758 C169.511,117.172 220.284,65.484 220.364,65.413 C221.322,64.44 221.308,62.873 220.334,61.916 C219.361,60.958 217.794,60.973 216.837,61.946" fill="#4C2D21" id="path73011"/>
    <path d="M86.354,409.22 C93.997,430.98 91.991,508.193 91.991,508.193 L101.296,591.093 C102.148,597.542 79.574,660.054 79.574,660.054 C87.395,674.654 180.045,674.4 187.738,674.349 C195.458,674.4 288.096,674.654 295.89,660.054 C295.89,660.054 273.317,597.542 274.182,591.093 L283.499,508.193 C283.499,508.193 281.823,428.593 289.415,406.86 L254.046,391.854 C254.046,391.854 237.492,438.369 188.348,438.343 L188.348,438.217 C188.119,438.242 187.929,438.242 187.738,438.268 C187.511,438.242 187.357,438.242 187.13,438.217 L187.13,438.343 C132.642,438.343 121.749,394.215 121.749,394.215 C121.749,394.215 91.165,400.765 86.354,409.22" fill="#90C2DF" id="path73013"/>
    <path d="M86.354,409.22 C93.997,430.98 91.991,508.193 91.991,508.193 L101.296,591.093 C102.148,597.542 79.574,660.054 79.574,660.054 C87.395,674.654 180.045,674.4 187.738,674.349 C195.458,674.4 288.096,674.654 295.89,660.054 C295.89,660.054 273.317,597.542 274.182,591.093 L283.499,508.193 C283.499,508.193 281.823,428.593 289.415,406.86 L254.046,391.854 C254.046,391.854 237.492,438.369 188.348,438.343 L188.348,438.217 C188.119,438.242 187.929,438.242 187.738,438.268 C187.511,438.242 187.357,438.242 187.13,438.217 L187.13,438.343 C132.642,438.343 121.749,394.215 121.749,394.215 C121.749,394.215 91.165,400.765 86.354,409.22" fill="#90C2DF" fill-opacity="0.531" id="path73015"/>
    <path d="M186.875,638.726 C177.849,638.726 98.63,638.726 98.465,638.726 C98.491,638.726 103.416,673.232 104.458,676.584 C118.27,721.956 164.05,721.093 186.875,721.322 C209.739,721.093 255.519,721.956 269.357,676.584 C270.397,673.232 275.323,638.726 275.349,638.726 C275.146,638.726 195.991,638.726 186.875,638.726" fill="#FFFFFE" id="path73017"/>
    <path d="M186.875,638.726 L186.875,636.631 C177.849,636.631 98.63,636.631 98.465,636.631 C97.696,636.631 96.993,637.048 96.625,637.724 C96.257,638.399 96.287,639.215 96.704,639.861 L98.465,638.726 L96.493,639.432 C96.525,639.51 96.539,639.593 96.704,639.861 L98.465,638.726 L96.493,639.432 L98.454,638.73 L96.429,639.223 C96.439,639.261 96.446,639.296 96.493,639.432 L98.454,638.73 L96.429,639.223 L98.284,638.772 L96.404,639.101 L96.429,639.223 L98.284,638.772 L96.404,639.101 L96.56,639.072 L96.403,639.098 L96.404,639.101 L96.56,639.072 L96.403,639.098 C96.422,639.213 96.522,639.892 96.673,640.923 C97.205,644.554 98.41,652.831 99.594,660.564 C100.187,664.431 100.773,668.164 101.271,671.12 C101.52,672.599 101.746,673.884 101.941,674.904 C102.038,675.415 102.128,675.858 102.211,676.237 C102.296,676.616 102.367,676.918 102.456,677.205 L102.453,677.193 C105.995,688.847 111.651,697.648 118.504,704.198 C128.791,714.033 141.664,718.77 154.023,721.089 C166.386,723.407 178.316,723.329 186.854,723.417 L186.896,723.417 C198.307,723.294 215.708,723.49 232.179,717.864 C240.416,715.048 248.438,710.753 255.294,704.198 C262.153,697.649 267.812,688.848 271.361,677.195 L271.358,677.205 C271.46,676.872 271.544,676.513 271.644,676.044 C272.013,674.314 272.544,671.194 273.151,667.411 C274.058,661.747 275.12,654.654 275.96,648.974 C276.38,646.134 276.743,643.647 277.003,641.871 C277.133,640.983 277.235,640.273 277.308,639.787 C277.343,639.544 277.372,639.356 277.39,639.233 L277.41,639.105 L277.411,639.094 L276.286,638.91 L277.407,639.119 L277.411,639.094 L276.286,638.91 L277.407,639.119 L275.474,638.756 L277.39,639.201 L277.407,639.119 L275.474,638.756 L277.39,639.201 L275.362,638.732 L277.343,639.367 L277.39,639.201 L275.362,638.732 L277.343,639.367 L275.349,638.726 L277.224,639.662 C277.308,639.489 277.324,639.424 277.343,639.367 L275.349,638.726 L277.224,639.662 L275.349,638.726 L276.94,640.09 C277.121,639.872 277.174,639.753 277.224,639.662 L275.349,638.726 L276.94,640.09 C277.471,639.47 277.593,638.591 277.252,637.85 C276.912,637.11 276.164,636.631 275.349,636.631 C275.146,636.631 195.991,636.631 186.875,636.631 L186.875,640.822 C195.991,640.822 275.146,640.822 275.349,640.822 L275.349,638.726 L273.588,637.59 C273.423,637.859 273.41,637.942 273.376,638.02 C273.329,638.157 273.322,638.195 273.312,638.232 C273.285,638.352 273.287,638.351 273.282,638.379 L273.248,638.592 C273.042,639.959 271.803,648.557 270.488,657.234 C269.831,661.57 269.156,665.922 268.584,669.379 C268.299,671.105 268.039,672.611 267.823,673.768 C267.714,674.346 267.617,674.838 267.535,675.22 C267.454,675.597 267.383,675.88 267.355,675.962 L267.353,675.973 C263.983,687.006 258.73,695.113 252.399,701.169 C242.908,710.245 230.874,714.74 218.986,716.969 C207.104,719.2 195.45,719.143 186.854,719.226 L186.875,721.322 L186.896,719.226 C175.462,719.121 158.551,719.242 142.965,713.899 C135.173,711.231 127.73,707.222 121.401,701.169 C115.073,695.113 109.825,687.007 106.462,675.974 L106.458,675.962 C106.431,675.876 106.353,675.572 106.269,675.168 C105.937,673.622 105.401,670.494 104.802,666.748 C103.9,661.118 102.838,654.034 102.001,648.362 C101.581,645.524 101.218,643.041 100.958,641.265 C100.828,640.377 100.725,639.666 100.653,639.176 C100.616,638.93 100.589,638.741 100.568,638.607 L100.543,638.446 L100.532,638.375 L100.517,638.3 L100.485,638.169 C100.472,638.123 100.461,638.075 100.404,637.931 C100.369,637.854 100.338,637.759 100.199,637.55 L98.465,638.726 L98.465,640.822 C98.63,640.822 177.849,640.822 186.875,640.822 L186.875,638.726" fill="#8A8B8A" id="path73019"/>
    <path d="M275.07,635.604 C275.07,652.513 235.486,666.224 186.659,666.224 C137.834,666.224 98.262,652.513 98.262,635.604 C98.262,618.667 137.834,603.281 186.659,603.281 C235.486,603.281 275.07,618.667 275.07,635.604 z" fill="url(#Gradient_1)" id="path73021"/>
    <path d="M275.07,635.604 L274.14,635.604 C274.139,637.534 273.58,639.424 272.474,641.302 C270.54,644.582 266.894,647.78 261.81,650.673 C254.188,655.021 243.374,658.69 230.484,661.255 C217.593,663.823 202.623,665.294 186.659,665.294 C162.335,665.297 140.316,661.874 124.455,656.376 C116.525,653.632 110.14,650.364 105.797,646.803 C103.624,645.024 101.964,643.175 100.858,641.302 C99.752,639.426 99.193,637.534 99.191,635.604 C99.193,633.669 99.753,631.744 100.863,629.816 C102.801,626.445 106.453,623.106 111.537,620.045 C119.161,615.449 129.97,611.477 142.854,608.67 C155.74,605.861 170.703,604.21 186.659,604.21 C210.973,604.207 232.989,608.048 248.85,613.961 C256.78,616.916 263.168,620.392 267.518,624.114 C269.694,625.973 271.358,627.891 272.468,629.816 C273.579,631.744 274.14,633.669 274.14,635.604 L275.999,635.604 C275.999,633.303 275.323,631.043 274.079,628.888 C271.895,625.113 268.001,621.621 262.75,618.454 C254.868,613.708 243.896,609.696 230.863,606.854 C217.833,604.014 202.745,602.352 186.659,602.352 C162.148,602.354 139.961,606.208 123.826,612.221 C115.758,615.23 109.2,618.775 104.604,622.701 C102.307,624.667 100.498,626.73 99.252,628.888 C98.008,631.043 97.332,633.303 97.332,635.604 C97.332,637.9 98.01,640.136 99.258,642.247 C101.447,645.943 105.345,649.289 110.599,652.288 C118.481,656.779 129.449,660.482 142.475,663.078 C155.501,665.673 170.581,667.153 186.659,667.153 C211.162,667.151 233.344,663.719 249.479,658.133 C257.547,655.336 264.108,652.006 268.71,648.241 C271.011,646.356 272.825,644.359 274.074,642.247 C275.322,640.137 276,637.9 275.999,635.604 L275.07,635.604" fill="#8A8B8A" id="path73023"/>
    <path d="M239.269,621.029 C234.698,636.06 221.09,645.2 208.927,641.519 C196.752,637.812 190.596,622.604 195.152,607.598 C199.761,592.566 213.32,583.4 225.507,587.132 C237.67,590.84 243.864,605.998 239.269,621.029" fill="#FFFFFE" id="path73025"/>
    <path d="M233.683,619.607 C231.119,629.002 221.546,634.587 212.355,632.099 C203.125,629.586 197.768,619.937 200.307,610.492 C202.898,601.072 212.406,595.486 221.647,598 C230.864,600.513 236.248,610.187 233.683,619.607 z" fill="url(#Gradient_2)" id="path73027"/>
    <path d="M226.447,582.029 C227.081,582.41 227.107,575.732 226.676,574.869 C225.533,572.559 223.019,571.212 220.76,570.197 C217.966,568.979 214.462,569.206 211.809,567.988 C208.801,566.617 209.308,564.509 206.833,562.325 C205.056,560.777 201.284,559.634 198.961,559.432 C193.388,558.899 188.627,561.158 185.149,564.815 C178.103,554.709 168.366,559.482 160.469,565.247 C159.111,558.568 147.19,558.188 141.934,559.991 C135.357,562.224 132.311,569.893 125.087,571.39 C119.477,572.559 114.677,570.045 109.002,573.015 C107.593,573.777 97.068,584.289 98.719,585.025 C79.219,576.113 90.848,597.263 89.527,605.718 C74.42,608.536 85.605,633.065 96.561,635.07 C96.18,634.994 95.317,635.705 95.089,635.985 C94.428,636.593 94.327,637.075 95.012,637.837 C95.723,638.574 96.714,638.878 97.399,639.691 C97.92,640.275 98.136,640.986 98.491,641.697 C99.481,643.804 101.512,644.998 103.34,646.369 C105.435,647.867 107.58,649.366 109.802,650.711 C131.398,664.372 161.892,666.224 186.659,666.224 C190.151,666.224 193.934,666.224 197.857,666.098 C200.738,665.209 203.633,664.244 206.642,663.304 C210.451,662.086 212.787,658.988 215.579,658.099 C219.236,656.956 225.076,659.572 228.046,655.84 C229.061,654.57 230.712,648.274 231.043,647.334 C231.119,647.206 233.581,644.744 234.14,643.348 C234.978,641.241 233.531,638.143 234.09,635.934 C235.054,632.48 237.873,630.652 237.999,626.818 C238.126,622.349 233.176,619.988 232.642,616.002 C246.048,610.619 237.974,605.491 231.88,598.304 C245.236,598.94 230.204,584.467 226.447,582.029" fill="#7FBD4A" id="path73029"/>
    <path d="M262.781,587.792 C266.158,584.366 264.278,580.658 260.927,578.195 C256.001,574.513 251.278,576.95 245.642,576.367 C244.017,559.61 221.013,569.054 212.787,573.346 C209.613,574.997 209.46,574.971 205.626,574.081 C202.643,573.372 199.698,572.685 196.625,572.786 C190.532,573.015 181.493,573.396 182.788,581.394 C176.999,579.846 173.342,573.777 166.538,572.786 C159.873,571.873 145.158,572.786 143.407,580.658 C130.826,577.688 121.976,581.013 116.137,592.998 C96.954,584.593 108.393,604.525 107.085,612.498 C92.219,615.113 103.238,638.295 114.03,640.149 L111.744,641.596 C109.205,645.938 113.598,651.676 117.026,654.215 C118.803,655.078 120.619,655.866 122.522,656.575 C123.601,656.881 124.579,657.185 125.431,657.693 C144.968,664.244 166.182,666.224 186.659,666.224 C200.46,666.224 215.173,665.513 229.341,662.822 C229.977,662.416 230.636,662.06 231.347,661.882 C232.414,661.553 233.683,661.553 235.028,661.578 C243.51,659.623 251.102,656.601 259.124,653.224 C268.722,649.161 271.135,642.307 276.822,634.867 C280.123,630.474 287.841,621.232 279.209,617.804 C287.561,614.986 285.227,603.027 276.136,604.652 C279.691,600.488 281.138,595.765 276.745,591.348 C272.988,587.565 267.706,588.072 262.781,587.792" fill="#529B44" id="path73031"/>
    <path d="M274.739,638.015 C267.198,651.803 252.04,657.998 240.843,651.878 C229.697,645.785 226.777,629.637 234.293,615.849 C241.834,602.113 257.043,595.893 268.189,602.012 C279.361,608.105 282.281,624.229 274.739,638.015" fill="#FFFFFE" id="path73033"/>
    <path d="M269.56,635.45 C265.142,644.16 254.605,647.715 246.124,643.348 C237.619,639.006 234.317,628.468 238.71,619.759 C243.153,611.075 253.665,607.521 262.171,611.863 C270.677,616.205 274.004,626.768 269.56,635.45" fill="#EEA52D" id="path73035"/>
    <path d="M181.403,626.361 C173.672,629.128 163.554,616.916 160.291,610.695 C156.101,602.798 153.754,592.872 153.943,583.73 C154.122,573.7 158.692,554.607 169.889,562.757 C180.476,570.476 188.755,581.902 190.596,595.512 C191.649,603.128 190.125,623.263 181.403,626.361" fill="#3D7F42" id="path73037"/>
    <path d="M178.776,619.581 C173.126,620.42 161.84,611.075 159.556,606.735 C156.61,601.25 155.645,596.781 155.784,590.408 C155.949,583.4 159.047,571.06 166.144,570.45 C171.666,569.968 176.541,573.295 180.135,577.485 C185.327,583.553 188.145,591.449 188.374,599.7 C188.475,605.286 185.175,618.592 178.776,619.581" fill="#C6DB88" id="path73039"/>
    <path d="M216.341,599.65 C216.341,599.65 210.794,602.697 207.619,603.23 C207.302,605.363 207.683,608.156 208.546,610.949 C202.77,610.035 199.038,607.268 199.038,607.268 C199.038,607.268 180.883,603.408 195.229,609.807 C201.729,612.7 207.086,614.479 210.07,614.199 C211.721,618.414 213.447,621.131 216.29,622.553 C217.129,622.959 227.335,618.363 227.158,615.849 C226.929,612.955 214.335,604.474 216.341,599.65" fill="#82AC48" id="path73041"/>
    <path d="M226.65,586.929 C228.859,586.777 231.728,588.783 231.397,591.348 C231.144,593.429 229.341,594.394 227.665,594.902 C225.329,595.613 225.989,597.289 224.415,598.33 C223.171,599.218 221.445,598.94 219.972,599.904 C217.51,601.529 216.874,604.881 214.158,606.378 C209.968,608.664 205.245,607.292 200.929,609.781 C197.032,611.991 194.214,612.803 189.326,611.507 C188.018,611.127 187.13,610.34 185.936,609.831 C184.692,609.375 182.991,609.73 182.101,608.512 C181.048,607.09 182.381,606.024 182.965,604.932 C181.936,604.703 180.553,604.678 179.664,604.018 C178.039,602.798 178.992,602.215 179.182,600.717 C179.461,598.94 179.309,599.422 177.57,598.533 C176.744,598.127 175.652,597.593 175.057,596.882 C174.231,595.968 172.58,592.312 173.126,591.247 C173.672,590.205 174.993,590.078 176.008,590.128 C174.485,590.053 176.237,582.41 179.589,584.441 C178.573,583.857 177.38,582.003 178.065,580.607 C178.699,579.44 180.35,579.491 181.403,579.262 C179.309,578.348 179.88,575.123 180.934,573.524 C181.302,572.94 186.291,569.765 186.469,571.086 C185.987,567.354 189.643,562.453 192.817,566.16 C192.182,565.423 194.568,563.519 195.039,563.367 C196.372,562.834 197.73,563.393 198.809,564.23 C199.291,561.768 201.449,560.117 203.785,560.015 C206.388,559.94 206.947,561.006 207.76,563.291 C208.852,561.843 211.974,560.803 213.802,561.565 C217.103,562.986 215.656,566.033 215.859,568.623 C217.89,567.785 220.328,567.074 222.587,567.48 C223.451,567.658 224.492,567.887 224.948,568.825 C225.228,569.309 225.126,572.203 224.364,572.127 C223.984,572.101 223.908,572.075 224.136,572.051 C227.767,571.822 226.929,576.798 225.278,578.373 C224.948,578.729 227.107,579.718 227.335,579.846 C228.478,580.581 229.722,581.116 230.078,582.664 C230.484,584.619 228.301,586.346 226.65,586.929" fill="#3D7F42" id="path73043"/>
    <path d="M142.975,659.268 C136.119,663.863 123.374,654.443 118.651,649.263 C112.658,642.611 107.961,633.547 105.905,624.66 C103.67,614.86 103.416,595.257 116.277,600.438 C128.426,605.312 139.268,614.351 144.372,627.123 C147.215,634.257 150.669,654.138 142.975,659.268" fill="#3D7F42" id="path73045"/>
    <path d="M138.761,653.351 C133.492,655.56 120.276,649.238 116.975,645.607 C112.811,640.961 110.767,636.899 109.333,630.652 C107.758,623.822 107.809,611.101 114.512,608.791 C119.794,606.962 125.303,609.019 129.848,612.218 C136.348,616.789 141.007,623.771 143.191,631.718 C144.676,637.127 144.715,650.837 138.761,653.351" fill="#C6DB88" id="path73047"/>
    <path d="M153.754,637.127 C145.946,639.869 135.903,627.656 132.603,621.461 C128.426,613.539 126.065,603.637 126.268,594.496 C126.484,584.441 131.041,565.373 142.238,573.498 C152.801,581.242 161.104,592.643 162.945,606.252 C163.973,613.894 162.475,634.029 153.754,637.127" fill="#3D7F42" id="path73049"/>
    <path d="M151.087,630.322 C145.477,631.185 134.164,621.842 131.88,617.525 C128.96,611.991 127.969,607.521 128.096,601.149 C128.249,594.116 131.398,581.825 138.506,581.217 C144.017,580.735 148.892,584.06 152.484,588.275 C157.676,594.292 160.507,602.241 160.698,610.441 C160.824,616.053 157.499,629.357 151.087,630.322" fill="#C6DB88" id="path73051"/>
    <path d="M187.231,660.41 C193.934,663.94 195.101,666.224 203.405,663.33 C208.101,661.654 217.357,659.47 220.861,656.399 C225.152,652.691 225.736,644.592 225.659,638.904 C225.558,629.789 222.486,627.072 213.447,624.888 C193.985,620.14 164.913,616.56 149.755,632.937 C144.27,638.828 133.961,649.974 139.801,658.658 C145.413,666.986 154.857,660.36 161.84,658.277 C170.372,655.738 179.157,656.17 187.231,660.41" fill="#7FBD4A" id="path73053"/>
    <path d="M211.364,644.033 C208.317,651.65 199.698,655.307 192.119,652.259 C184.514,649.212 180.833,640.605 183.88,633.013 C186.926,625.422 195.533,621.741 203.125,624.762 C210.73,627.809 214.412,636.441 211.364,644.033" fill="#DB3732" id="path73055"/>
    <path d="M187.13,631.236 C187.586,630.881 188.5,630.652 188.982,631.185 C189.706,631.998 188.755,632.277 188.221,632.759 C186.976,633.877 187.967,635.248 187.13,636.34 C186.215,637.634 185.149,636.315 185.175,635.146 C185.238,633.979 186.241,631.947 187.13,631.236" fill="#FFFFFE" id="path73057"/>
    <path d="M189.237,629.357 C189.427,628.849 190.38,628.798 190.849,628.95 C191.611,629.179 191.318,630.119 190.811,630.474 C190.176,630.932 188.982,630.119 189.237,629.357" fill="#FFFFFE" id="path73059"/>
    <path d="M207.403,631.718 C206.515,628.976 204.992,627.783 202.922,627.123 C205.373,625.904 208.673,624.736 208.673,624.736 C205.436,623.06 202.389,624.61 200.612,625.777 C200.142,623.694 198.327,620.217 194.823,619.2 C194.823,619.2 196.524,622.604 197.438,625.143 C195.508,624.203 193.476,623.72 190.951,625.117 C190.951,625.117 194.214,625.854 196.676,627.072 C194.619,627.428 193.324,628.545 192.119,630.956 C193.705,630.271 195.255,629.637 196.905,629.154 C198.238,628.798 200.142,628.265 201.5,628.672 C202.872,629.053 204.166,629.866 205.397,630.551 C205.728,630.729 207.251,631.337 207.403,631.718" fill="#3D7F42" id="path73061"/>
    <path d="M187.13,629.053 C184.133,636.644 175.475,640.301 167.883,637.279 C160.317,634.232 156.61,625.599 159.682,618.007 C162.729,610.416 171.323,606.735 178.928,609.807 C186.507,612.828 190.176,621.461 187.13,629.053" fill="#DB3732" id="path73063"/>
    <path d="M162.945,616.256 C163.389,615.9 164.303,615.672 164.785,616.179 C165.484,617.018 164.532,617.322 164.024,617.779 C162.78,618.871 163.744,620.268 162.945,621.36 C161.993,622.654 160.952,621.36 160.976,620.166 C161.002,618.998 162.031,616.941 162.945,616.256" fill="#FFFFFE" id="path73065"/>
    <path d="M165.014,614.351 C165.23,613.843 166.144,613.792 166.613,613.944 C167.388,614.199 167.135,615.138 166.589,615.494 C165.954,615.95 164.761,615.164 165.014,614.351" fill="#FFFFFE" id="path73067"/>
    <path d="M183.169,616.712 C182.293,613.971 180.807,612.803 178.738,612.167 C181.15,610.923 184.488,609.781 184.488,609.781 C181.214,608.08 178.166,609.604 176.389,610.771 C175.945,608.69 174.104,605.262 170.587,604.195 C170.587,604.195 172.327,607.598 173.215,610.188 C171.285,609.223 169.28,608.765 166.715,610.137 C166.715,610.137 170.017,610.899 172.454,612.066 C170.398,612.473 169.127,613.59 167.883,615.976 C169.445,615.291 171.057,614.631 172.708,614.199 C174.015,613.818 175.945,613.31 177.303,613.666 C178.649,614.047 179.969,614.884 181.188,615.545 C181.493,615.748 183.041,616.357 183.169,616.712" fill="#3D7F42" id="path73069"/>
    <path d="M163.834,638.65 C165.039,646.724 159.479,654.265 151.38,655.459 C143.292,656.703 135.738,651.143 134.545,643.042 C133.327,634.943 138.887,627.402 146.961,626.209 C155.061,624.965 162.601,630.551 163.834,638.65" fill="#DB3732" id="path73071"/>
    <path d="M136.436,639.869 C136.652,639.336 137.326,638.676 137.999,638.878 C139.065,639.235 138.38,639.944 138.151,640.656 C137.643,642.23 139.192,642.89 139.065,644.236 C138.887,645.861 137.288,645.252 136.755,644.236 C136.183,643.22 136.057,640.935 136.436,639.869" fill="#FFFFFE" id="path73073"/>
    <path d="M137.288,637.178 C137.211,636.644 137.999,636.111 138.468,636.009 C139.268,635.831 139.484,636.797 139.23,637.381 C138.913,638.066 137.491,637.965 137.288,637.178" fill="#FFFFFE" id="path73075"/>
    <path d="M154.122,630.042 C152.014,628.113 150.11,627.86 147.976,628.342 C149.475,626.031 151.722,623.366 151.722,623.366 C148.079,623.568 146.238,626.411 145.311,628.342 C143.826,626.768 140.487,624.685 136.982,625.599 C136.982,625.599 140.182,627.656 142.238,629.408 C140.08,629.56 138.125,630.194 136.627,632.658 C136.627,632.658 139.827,631.643 142.568,631.44 C140.969,632.81 140.436,634.435 140.589,637.101 C141.604,635.756 142.619,634.36 143.826,633.14 C144.777,632.176 146.175,630.729 147.545,630.373 C148.892,630.042 150.414,630.042 151.849,630.042 C152.192,630.018 153.842,629.763 154.122,630.042" fill="#3D7F42" id="path73077"/>
    <path d="M249.984,638.854 C246.15,654.113 233.099,663.94 220.709,660.867 C208.356,657.744 201.449,642.916 205.245,627.656 C209.054,612.447 222.13,602.595 234.521,605.693 C246.861,608.765 253.793,623.644 249.984,638.854" fill="#FFFFFE" id="path73079"/>
    <path d="M244.296,637.711 C242.215,647.257 232.972,653.301 223.679,651.295 C214.335,649.238 208.445,639.869 210.501,630.322 C212.635,620.775 221.876,614.706 231.221,616.738 C240.539,618.795 246.403,628.164 244.296,637.711" fill="#EEA52D" id="path73081"/>
    <path d="M274.053,638.843 C272.697,642.304 269.395,645.763 264.432,648.935 C256.997,653.698 245.9,657.809 232.496,660.703 C219.09,663.601 203.373,665.296 186.659,665.294 C164.979,665.296 144.854,662.32 129.286,657.573 C121.502,655.2 114.859,652.383 109.742,649.297 C104.621,646.214 101.05,642.853 99.343,639.497 L97.689,640.342 C99.652,644.172 103.49,647.691 108.783,650.888 C116.726,655.676 127.992,659.727 141.38,662.6 C154.766,665.47 170.271,667.154 186.659,667.154 C209.113,667.152 229.782,664.125 245.632,659.199 C253.559,656.735 260.281,653.799 265.434,650.5 C270.582,647.2 274.192,643.539 275.782,639.523 L274.053,638.843" fill="#8A8B8A" id="path73083"/>
    <path d="M147.8,287.955 C143.889,287.295 161.04,329.723 184.768,328.453 C204.992,327.361 218.397,299.991 222.739,286.203 C222.739,286.203 187.295,294.277 147.8,287.955" fill="#E77E71" id="path73085"/>
    <path d="M139.014,580.15 C132.311,573.32 140.41,556.741 145.349,550.241 C151.722,541.988 161.079,534.7 170.841,530.461 C181.594,525.815 204.014,521.422 200.777,537.215 C197.73,552.17 189.643,566.491 176.136,574.997 C168.557,579.744 146.492,587.92 139.014,580.15" fill="#3D7F42" id="path73087"/>
    <path d="M144.93,574.107 C141.3,568.521 145.73,552.093 149.183,547.548 C153.626,541.785 157.88,538.586 164.684,535.666 C172.199,532.416 186.761,529.775 190.811,536.961 C194.011,542.623 192.842,549.377 190.125,555.242 C186.241,563.646 179.245,570.45 170.587,574.64 C164.722,577.485 149.068,580.378 144.93,574.107" fill="#C6DB88" id="path73089"/>
    <path d="M85.249,428.416 C92.422,438.013 114.893,470.768 121.038,481.075 C124.136,486.307 129.112,496.132 131.752,501.617 C133.327,504.994 133.657,505.248 138.1,502.607 C142.493,499.916 142.429,499.535 140.245,496.539 C136.601,491.638 130.255,482.65 127.08,477.42 C120.835,467.212 102.452,431.996 97.374,421.154 C94.098,414.274 84.793,397.185 76.934,400.893 C69.976,406.123 80.692,422.322 85.249,428.416" fill="#85979D" id="path73091"/>
    <path d="M132.222,535.259 C140.525,549.098 155.645,562.021 158.768,556.156 C159.238,555.292 157.524,553.059 157.143,552.373 C155.011,548.792 152.649,545.34 150.795,541.632 C150.173,540.337 149.348,538.789 149.374,537.291 C149.374,536.021 150.072,535.691 151.087,535.158 C152.573,534.396 153.41,534.346 154.388,535.792 C155.086,536.783 155.645,537.849 156.255,538.916 C158.768,543.257 161.231,547.599 163.834,551.916 C165.166,554.125 166.589,554.404 167.921,553.896 C168.176,553.769 168.442,553.667 168.696,553.515 C168.912,553.363 169.127,553.211 169.381,552.982 C170.435,552.068 170.803,550.723 169.546,548.488 C169,547.524 168.467,546.584 167.883,545.644 C165.611,541.709 163.136,537.849 160.723,533.991 C160.152,533.101 158.984,531.705 159.238,530.613 C159.835,527.795 163.389,528.404 164.887,529.928 C167.579,532.695 169.381,536.402 171.261,539.753 C171.666,540.465 174.485,546.456 175.652,546 C182.788,543.206 177.938,526.551 169.66,512.763 C159.023,495.015 147.254,493.518 135.053,495.905 L135.015,495.828 C134.723,495.98 134.545,496.132 134.278,496.285 C134.025,496.438 133.783,496.565 133.53,496.717 L133.556,496.792 C125.633,508.371 121.571,517.536 132.222,535.259" fill="#85979D" id="path73093"/>
    <path d="M23.474,625.295 C11.63,616.078 13.216,588.021 16.085,575.732 C22.142,549.783 34.277,527.236 46.744,504.131 C55.098,488.667 64.747,469.295 76.731,456.524 C91.255,441.06 118.752,442 129.493,461.297 C139.42,479.069 129.302,495.904 112.113,501.693 C108.278,502.962 105.752,504.486 101.056,504.741 C97.881,504.893 90.67,502.684 88.093,504.029 C77.874,509.361 71.907,558.974 68.53,571.873 C65.152,584.899 63.02,598.812 56.342,610.67 C53.092,616.485 48.877,621.791 42.961,625.041 C34.583,629.637 28.21,629.002 23.474,625.295" fill="#F6C49D" id="path73095"/>
    <path d="M23.474,625.295 L24.601,623.845 C21.458,621.414 19.217,617.244 17.823,612.145 C16.424,607.058 15.868,601.115 15.87,595.353 C15.868,587.933 16.787,580.792 17.874,576.15 C23.854,550.504 35.889,528.109 48.36,505.002 C52.547,497.251 57.038,488.565 61.957,480.252 C66.872,471.94 72.224,464.006 78.07,457.779 C84.349,451.087 93.265,447.62 102.044,447.622 C107.219,447.621 112.329,448.824 116.81,451.24 C121.293,453.66 125.152,457.279 127.889,462.189 C130.449,466.775 131.568,471.211 131.569,475.361 C131.567,480.926 129.554,486.024 126.039,490.288 C122.525,494.547 117.493,497.944 111.527,499.953 L111.536,499.95 C109.522,500.618 107.917,501.323 106.322,501.857 C104.723,502.393 103.125,502.787 100.955,502.906 L100.968,502.906 L100.721,502.911 C99.728,502.918 97.991,502.648 96.162,502.355 C94.316,502.066 92.352,501.758 90.57,501.754 C89.417,501.766 88.321,501.857 87.242,502.402 C85.483,503.338 84.136,504.955 82.887,506.993 C80.724,510.574 78.896,515.618 77.229,521.43 C74.74,530.14 72.673,540.546 70.944,549.843 C70.08,554.489 69.302,558.857 68.604,562.579 C67.907,566.298 67.284,569.386 66.754,571.407 L66.752,571.412 C63.357,584.566 61.212,598.312 54.743,609.769 L54.739,609.774 C51.584,615.423 47.567,620.42 42.077,623.432 C38.18,625.569 34.863,626.448 32.074,626.447 C29.151,626.437 26.754,625.518 24.605,623.849 L24.601,623.845 L23.474,625.295 L22.342,626.74 C25.037,628.861 28.34,630.127 32.074,630.118 C35.642,630.118 39.555,629.002 43.844,626.651 C50.188,623.161 54.601,617.545 57.945,611.565 L57.942,611.571 C64.827,599.312 66.949,585.23 70.307,572.333 L70.305,572.338 C71.183,568.979 72.184,563.465 73.38,556.91 C75.17,547.091 77.38,534.986 80.076,524.911 C81.422,519.878 82.893,515.35 84.453,511.924 C85.231,510.214 86.031,508.78 86.813,507.712 C87.59,506.64 88.349,505.96 88.942,505.657 C89.077,505.566 89.709,505.415 90.57,505.427 C91.915,505.423 93.772,505.692 95.59,505.982 C97.426,506.268 99.202,506.576 100.721,506.583 C100.857,506.583 100.997,506.58 101.143,506.574 L101.154,506.574 C103.683,506.44 105.697,505.944 107.493,505.337 C109.295,504.729 110.869,504.037 112.689,503.435 L112.698,503.433 C119.256,501.224 124.869,497.471 128.87,492.626 C132.87,487.789 135.244,481.829 135.242,475.361 C135.243,470.543 133.927,465.468 131.096,460.401 C128.019,454.87 123.612,450.733 118.552,448.009 C113.491,445.281 107.784,443.95 102.044,443.95 C92.314,443.953 82.44,447.771 75.392,455.266 C69.254,461.812 63.788,469.949 58.796,478.383 C53.807,486.815 49.295,495.547 45.13,503.257 C32.666,526.362 20.428,549.061 14.297,575.315 C13.135,580.299 12.201,587.626 12.198,595.353 C12.201,601.35 12.762,607.573 14.282,613.118 C15.807,618.648 18.286,623.57 22.347,626.743 L22.342,626.74 L23.474,625.295" fill="#F0AB7E" id="path73097"/>
    <path d="M291.142,647.715 C303.787,645.887 308.255,657.566 309.017,668.053 C310.058,682.373 305.92,690.167 294.722,699.08 C290.609,702.355 284.489,705.377 279.31,707.763 C268.951,712.562 258.769,716.041 248.308,709.795 C243.23,706.774 238.38,702.304 233.505,698.75 C228.682,695.297 228.579,690.752 232.668,686.029 C235.79,682.423 240.107,680.798 244.576,679.098 C248.892,677.371 252.066,674.426 255.722,671.709 C256.179,671.404 267.097,662.593 264.787,662.518 C261.13,662.416 252.447,665.057 252.218,660.131 C251.989,654.519 262.603,651.015 266.716,649.694 C274.308,647.257 282.103,646.572 290.025,646.572" fill="#F6C49D" id="path73099"/>
  </g>
</svg>
